<?xml version="1.0" standalone="no"?>
<!DOCTYPE svg PUBLIC "-//W3C//DTD SVG 20010904//EN"
 "http://www.w3.org/TR/2001/REC-SVG-20010904/DTD/svg10.dtd">
<svg version="1.0" xmlns="http://www.w3.org/2000/svg"
 width="777.000000pt" height="777.000000pt" viewBox="0 0 777.000000 777.000000"
 preserveAspectRatio="xMidYMid meet">
<metadata>
Created by potrace 1.14, written by Peter Selinger 2001-2017
</metadata>
<g transform="translate(0.000000,777.000000) scale(0.100000,-0.100000)"
fill="#000000" stroke="none">
<path d="M4320 6975 l0 -635 -1625 0 -1625 0 0 -2410 0 -2410 1625 0 1625 0 0
-710 0 -710 40 0 40 0 0 710 0 710 1170 0 1170 0 0 2410 0 2410 -1170 0 -1170
0 0 635 0 635 -40 0 -40 0 0 -635z m0 -3045 l0 -2330 -1585 0 -1585 0 0 2330
0 2330 1585 0 1585 0 0 -2330z m2350 0 l0 -2330 -1135 0 -1135 0 0 2330 0
2330 1135 0 1135 0 0 -2330z"/>
<path d="M1604 5723 c4 -21 107 -816 231 -1768 124 -952 227 -1745 230 -1762
l6 -33 164 0 c163 0 165 0 170 23 12 53 277 1871 300 2057 29 237 64 580 66
642 2 51 6 22 39 -272 40 -356 92 -721 226 -1576 74 -474 134 -865 134 -868 0
-3 75 -6 168 -6 l167 0 204 1773 c112 974 206 1784 209 1800 l5 27 -179 -2
-179 -3 -97 -910 c-101 -948 -135 -1325 -145 -1608 -3 -92 -9 -170 -13 -172
-4 -2 -10 44 -14 103 -21 341 -102 956 -314 2402 l-27 185 -177 3 c-177 2
-178 2 -183 -20 -7 -35 -244 -1813 -265 -1993 -10 -88 -26 -263 -35 -390 -17
-235 -33 -328 -34 -205 -2 133 -31 424 -176 1792 -47 439 -85 802 -85 808 0 6
-72 10 -201 10 l-201 0 6 -37z"/>
<path d="M4910 3961 l0 -1801 195 0 195 0 0 724 0 723 163 6 c181 6 243 18
354 72 184 90 298 281 354 591 18 99 22 161 23 364 1 159 -4 278 -13 340 -40
281 -135 489 -290 632 -130 121 -206 138 -648 145 l-333 6 0 -1802z m593 1434
c218 -57 308 -302 294 -800 -6 -228 -27 -350 -77 -451 -64 -130 -149 -181
-322 -191 l-98 -6 0 731 0 732 73 0 c40 0 99 -7 130 -15z"/>
</g>
</svg>
